<?xml version="1.0" encoding="UTF-8"?> <svg xmlns="http://www.w3.org/2000/svg" viewBox="0 0 100 100" fill-rule="evenodd"><path d="M81.5 33H76V13.5a1.5 1.5 0 0 0-1.5-1.5h-24a1.5 1.5 0 0 0-1.5 1.5V25h-9.5a1.5 1.5 0 0 0-1.5 1.5V46H28V25.5a1.5 1.5 0 0 0-1.5-1.5h-14a1.5 1.5 0 0 0 0 3H25v49.5a1.48 1.48 0 0 0 0 .17V77a9 9 0 1 0 17.94-1h22.12A9 9 0 1 0 83 77v-.33a1.47 1.47 0 0 0 0-.17v-42a1.5 1.5 0 0 0-1.5-1.5ZM80 46H62V36h18ZM52 15h21v18H62v-6.5a1.5 1.5 0 0 0-1.5-1.5H52ZM41 28h18v18H41Zm-7 55a6 6 0 1 1 6-6 6 6 0 0 1-6 6Zm8.5-10a1.48 1.48 0 0 0-.42.07A9 9 0 0 0 28 70.31V49h52v21.31A9 9 0 0 0 65.95 73ZM74 83a6 6 0 1 1 6-6 6 6 0 0 1-6 6Z" fill="#ec631c"></path></svg> 