<?xml version="1.0" encoding="UTF-8"?> <svg xmlns="http://www.w3.org/2000/svg" width="2079" height="974" viewBox="0 0 2079 974" fill="none"><path d="M1555.64 486.904V529.497H1572.67L1561.32 569.25H1579.77L1598.21 529.497V486.904H1555.64Z" fill="#EC631C"></path><path d="M2018.27 709.805L2012.57 614.682V486.904H2058V614.682L2052.31 709.805H2018.27Z" fill="#EC631C"></path><path d="M2012.57 729.681V772.273H2058V729.681H2012.57Z" fill="#EC631C"></path><path fill-rule="evenodd" clip-rule="evenodd" d="M1210.8 772.273H1168.23L1215.06 486.904H1281.76L1328.59 772.273H1284.59L1276.27 719.743H1219.13L1210.8 772.273ZM1225.2 681.41L1247.7 539.435L1270.2 681.41H1225.2Z" fill="#FDFDFD"></path><path d="M1365.48 486.904H1409.47V609.003H1459.14V486.904H1507.39V772.273H1459.14V651.595H1409.47V772.273H1365.48V486.904Z" fill="#FDFDFD"></path><path fill-rule="evenodd" clip-rule="evenodd" d="M1646.45 543.694V719.743C1646.45 800.668 1779.84 800.668 1779.84 719.743V543.694C1779.84 462.769 1646.45 462.769 1646.45 543.694ZM1693.28 543.694C1693.27 567.83 1693.28 719.743 1693.28 719.743C1693.28 742.459 1735.85 742.459 1735.85 719.743V543.694C1735.85 519.558 1693.29 519.558 1693.28 543.694Z" fill="#FDFDFD"></path><path d="M1825.25 486.904V772.273H1872.08V689.928L1886.27 662.858L1930.27 772.273H1978.51L1911.53 614.682L1978.51 486.904H1930.27L1872.08 601.904V486.904H1825.25Z" fill="#FDFDFD"></path><path fill-rule="evenodd" clip-rule="evenodd" d="M1146.07 483H1007V524.173H1052.41V576.476L1099.24 628.778V576.476L1052.41 524.173H1099.24H1146.07V483ZM1052.41 628.778L1099.24 681.081V733.384L1052.41 681.081V628.778ZM1052.41 733.384V785.687L1099.24 837.99V785.687L1052.41 733.384ZM1052.41 890.293V837.99L1099.24 890.293V942.596L1052.41 890.293Z" fill="#FDFDFD"></path><path d="M1099.24 576.476V524.173H1052.41L1099.24 576.476Z" fill="#E3E3E3"></path><path d="M1099.24 681.081V628.778L1052.41 576.476V628.778L1099.24 681.081Z" fill="#D9D9D9"></path><path d="M1099.24 785.687V733.384L1052.41 681.081V733.384L1099.24 785.687Z" fill="#D9D9D9"></path><path d="M1099.24 890.293V837.99L1052.41 785.687V837.99L1099.24 890.293Z" fill="#D9D9D9"></path><path d="M1075.83 973.596L1099.24 942.596L1052.41 890.293V942.596L1075.83 973.596Z" fill="#D9D9D9"></path><path d="M921.403 668.632H965.395V719.743C965.395 800.668 832 800.668 832 719.743V543.694C832 462.769 965.395 462.769 965.395 543.694V584.867H921.403V543.694C921.403 519.558 878.839 519.558 878.83 543.694C878.821 567.83 878.83 719.743 878.83 719.743C878.83 742.459 921.403 742.459 921.403 719.743V668.632Z" fill="#FDFDFD"></path><path d="M969.403 332.938H1013.39V384.049C1013.39 464.974 880 464.974 880 384.049V208C880 127.074 1013.39 127.074 1013.39 208V249.173H969.403V208C969.403 183.864 926.839 183.864 926.83 208C926.821 232.136 926.83 384.049 926.83 384.049C926.83 406.765 969.403 406.765 969.403 384.049V332.938Z" fill="#EC631C"></path><path fill-rule="evenodd" clip-rule="evenodd" d="M1085.53 159.111V380.591C1085.53 398.764 1075.12 403.307 1069.92 403.307H1042.96V444.48H1091.21H1203.32H1250.15V403.307H1227.44V159.111H1085.53ZM1128.1 200.284V403.307H1184.87V200.284H1128.1Z" fill="#EC631C"></path><path d="M1958.27 108V142.074H2056.19V108H1958.27Z" fill="#EC631C"></path><path d="M1935.57 159.111H1975.3V326.641L2022.13 159.111H2078.89V444.48H2039.16V241.456L1980.98 444.48H1935.57V159.111Z" fill="#EC631C"></path><path fill-rule="evenodd" clip-rule="evenodd" d="M1761.02 444.48H1718.45L1765.28 159.111H1831.97L1878.8 444.48H1834.81L1826.49 391.949H1769.34L1761.02 444.48ZM1775.42 353.616L1797.91 211.642L1820.41 353.616H1775.42Z" fill="#EC631C"></path><path d="M1480.04 403.307V444.48H1516.92C1536.79 444.48 1566.6 424.604 1566.6 380.591V200.284H1619.11V444.48H1663.1V159.111H1521.19V380.591C1521.19 400.468 1512.66 403.307 1480.04 403.307Z" fill="#EC631C"></path><path d="M1305.49 159.111V444.48H1427.53V403.307H1352.32V318.123H1413.34V276.95H1352.32V200.284H1427.53V159.111H1305.49Z" fill="#EC631C"></path><path fill-rule="evenodd" clip-rule="evenodd" d="M533.843 568.353H793.666V484.582C793.666 456.185 796.505 427.788 830.58 427.788L832 216.232H659.008L167.536 216.231L110.744 216.232C69.57 216.232 39.7543 238.949 39.7543 271.606V453.345H300.997V415.01H418.84V730.214H352.109V681.94H0V730.214H36.9147V796.947H0V858H1026.5V792.688H533.843C525.324 792.688 516.805 787.008 516.805 775.649V586.811C516.805 575.452 525.324 568.353 533.843 568.353ZM559.399 558.414C594.685 558.414 623.29 529.808 623.29 494.521C623.29 477.462 616.605 461.965 605.712 450.506C605.712 450.506 637.488 407.018 643.167 397.972C648.846 388.925 654.526 393.712 668.724 389.453C685.268 384.489 698.539 372.753 698.539 355.376C698.539 336.556 683.283 321.3 664.464 321.3C645.645 321.3 630.389 336.556 630.389 355.376C630.389 359.359 631.28 362.359 632.328 366.735C636.068 382.353 636.068 386.613 631.809 392.292C627.55 397.972 606.726 427.567 596.314 442.365C585.889 434.973 573.152 430.628 559.399 430.628C524.113 430.628 495.509 459.234 495.509 494.521C495.509 529.808 524.113 558.414 559.399 558.414Z" fill="#EC631C"></path><path fill-rule="evenodd" clip-rule="evenodd" d="M378.498 28.4717C367.507 22.2929 358.654 13.3667 352.997 2.76197C350.3 1.23201 278.28 24.5522 276.991 32.104C281.119 44.43 280.666 55.7571 277.236 67.6917C273.806 79.6263 267.006 90.6339 257.65 99.3963C248.294 108.159 236.779 114.305 224.484 117.098C212.19 119.891 199.636 119.213 188.326 115.146C183.066 113.585 143.399 183.575 146.239 189.254C156.628 194.961 161.792 205.221 167.536 216.231L659.008 216.232C657.653 203.988 659.425 191.587 664.138 180.409C669.037 168.791 676.907 158.987 686.806 152.17C688.777 146.357 650.266 94.123 644.632 94.5836C634.14 101.192 621.599 104.276 608.662 103.429C595.725 102.581 583.002 97.8411 572.17 89.8349C561.339 81.8287 552.909 70.9324 547.993 58.584C543.077 46.2357 541.905 33.0157 544.634 20.6689C543.044 15.4157 479.891 -3.84607 474.458 0.683874C469.54 11.4695 461.313 20.688 450.761 27.2354C440.21 33.7828 427.782 37.3816 414.966 37.6009C402.15 37.8201 389.488 34.6506 378.498 28.4717ZM560.819 208.032C547.943 184.468 510.422 131.04 424.167 131.04C337.911 131.04 300.116 184.923 288.13 208.032H247.804C256.646 158.819 341.2 92.7042 424.167 92.7042C511.441 92.7042 590.843 162.014 599.745 208.032H560.819Z" fill="#EC631C"></path><path fill-rule="evenodd" clip-rule="evenodd" d="M378.498 28.4717C367.507 22.2929 358.654 13.3667 352.997 2.76197C350.3 1.23201 278.28 24.5522 276.991 32.104C281.119 44.43 280.666 55.7571 277.236 67.6917C273.806 79.6263 267.006 90.6339 257.65 99.3963C248.294 108.159 236.779 114.305 224.484 117.098C212.19 119.891 199.636 119.213 188.326 115.146C183.066 113.585 143.399 183.575 146.239 189.254C156.628 194.961 161.792 205.221 167.536 216.231L659.008 216.232C657.653 203.988 659.425 191.587 664.138 180.409C669.037 168.791 676.907 158.987 686.806 152.17C688.777 146.357 650.266 94.123 644.632 94.5836C634.14 101.192 621.599 104.276 608.662 103.429C595.725 102.581 583.002 97.8411 572.17 89.8349C561.339 81.8287 552.909 70.9324 547.993 58.584C543.077 46.2357 541.905 33.0157 544.634 20.6689C543.044 15.4157 479.891 -3.84607 474.458 0.683874C469.54 11.4695 461.313 20.688 450.761 27.2354C440.21 33.7828 427.782 37.3816 414.966 37.6009C402.15 37.8201 389.488 34.6506 378.498 28.4717ZM560.819 208.032C547.943 184.468 510.422 131.04 424.167 131.04C337.911 131.04 300.116 184.923 288.13 208.032H247.804C256.646 158.819 341.2 92.7042 424.167 92.7042C511.441 92.7042 590.843 162.014 599.745 208.032H560.819Z" fill="#FDFDFD"></path><path d="M85.1877 466.124V503.04H252.724V466.124H85.1877Z" fill="#FDFDFD"></path><path d="M117.843 522.918V558.414H220.068V522.918H117.843Z" fill="#FDFDFD"></path><path d="M149.079 582.549C149.079 608.106 157.597 616.625 190.253 616.625C190.253 591.068 182.018 582.549 149.079 582.549Z" fill="#FDFDFD"></path><path d="M149.079 622.304C166.116 638.929 176.055 638.929 188.833 637.509C188.833 637.509 183.895 657.265 170.375 659.22C155.552 661.364 149.079 622.304 149.079 622.304Z" fill="#FDFDFD"></path><path fill-rule="evenodd" clip-rule="evenodd" d="M556.56 775.649V586.811H793.666V775.649H556.56ZM716.517 747.32C732.984 747.32 746.333 733.971 746.333 717.504C746.333 701.036 732.984 687.687 716.517 687.687C700.05 687.687 686.701 701.036 686.701 717.504C686.701 733.971 700.05 747.32 716.517 747.32ZM611.929 669.171C628.396 669.171 641.745 655.822 641.745 639.355C641.745 622.887 628.396 609.538 611.929 609.538C595.462 609.538 582.113 622.887 582.113 639.355C582.113 655.822 595.462 669.171 611.929 669.171Z" fill="#FDFDFD"></path><path fill-rule="evenodd" clip-rule="evenodd" d="M607.672 494.521C607.672 521.182 586.06 542.795 559.399 542.795C532.739 542.795 511.126 521.182 511.126 494.521C511.126 467.859 532.739 446.246 559.399 446.246C586.06 446.246 607.672 467.859 607.672 494.521ZM559.399 524.337C575.866 524.337 589.215 510.988 589.215 494.521C589.215 478.054 575.866 464.704 559.399 464.704C542.933 464.704 529.584 478.054 529.584 494.521C529.584 510.988 542.933 524.337 559.399 524.337Z" fill="#FDFDFD"></path><rect x="1134" y="793" width="865" height="65" fill="#EC631C"></rect></svg> 